<?xml version="1.0" encoding="UTF-8" standalone="no"?><!DOCTYPE svg PUBLIC "-//W3C//DTD SVG 1.1//EN" "http://www.w3.org/Graphics/SVG/1.1/DTD/svg11.dtd"><svg width="100%" height="100%" viewBox="0 0 34 35" version="1.1" xmlns="http://www.w3.org/2000/svg" xmlns:xlink="http://www.w3.org/1999/xlink" xml:space="preserve" xmlns:serif="http://www.serif.com/" style="fill-rule:evenodd;clip-rule:evenodd;stroke-linejoin:round;stroke-miterlimit:1.41421;"><path d="M32.713,15.225l-8.8,0l-3.611,0l9.721,-5.612c0.512,-0.295 0.689,-0.952 0.391,-1.464c-0.292,-0.51 -0.949,-0.69 -1.464,-0.392l-9.721,5.611l3.916,-6.783c0.298,-0.512 0.121,-1.169 -0.391,-1.465c-0.513,-0.3 -1.17,-0.123 -1.465,0.389l-3.919,6.787l0,-11.223c0,-0.593 -0.48,-1.073 -1.072,-1.073c-0.593,0 -1.073,0.48 -1.073,1.073l0,11.223l-5.612,-9.721c-0.295,-0.51 -0.952,-0.687 -1.464,-0.392c-0.513,0.295 -0.69,0.953 -0.392,1.465l5.611,9.718l-6.196,-3.578c-0.515,-0.295 -1.172,-0.118 -1.464,0.394c-0.298,0.512 -0.121,1.169 0.392,1.464l6.196,3.579l-11.223,0c-0.593,0 -1.073,0.48 -1.073,1.073c0,0.592 0.48,1.072 1.073,1.072l11.223,0l-7.731,4.464c-0.512,0.295 -0.689,0.952 -0.391,1.467c0.198,0.343 0.558,0.536 0.93,0.536c0.183,0 0.368,-0.048 0.537,-0.144l7.773,-4.491l-7.706,13.546c-0.292,0.515 -0.113,1.172 0.402,1.465c0.169,0.093 0.349,0.142 0.529,0.142c0.372,0 0.735,-0.196 0.933,-0.542l7.658,-13.46l0,10.002c0,0.593 0.48,1.073 1.073,1.073c0.593,0 1.073,-0.483 1.073,-1.073l0,-10.251l3.932,6.418c0.204,0.33 0.555,0.513 0.917,0.513c0.191,0 0.384,-0.054 0.558,-0.161c0.505,-0.309 0.666,-0.969 0.354,-1.475l-3.715,-6.062l9.528,5.501c0.169,0.096 0.354,0.145 0.536,0.145c0.37,0 0.733,-0.193 0.931,-0.537c0.298,-0.512 0.121,-1.172 -0.392,-1.467l-9.72,-5.611l12.413,0c0.195,0 0.377,-0.052 0.535,-0.142c0.271,-0.156 0.467,-0.427 0.523,-0.746c0.01,-0.06 0.015,-0.122 0.015,-0.185c0,-0.593 -0.485,-1.07 -1.078,-1.07Z" style="fill:#f69300;fill-rule:nonzero;"/></svg>