<?xml version="1.0" encoding="UTF-8" standalone="no"?><!DOCTYPE svg PUBLIC "-//W3C//DTD SVG 1.1//EN" "http://www.w3.org/Graphics/SVG/1.1/DTD/svg11.dtd"><svg width="100%" height="100%" viewBox="0 0 54 54" version="1.1" xmlns="http://www.w3.org/2000/svg" xmlns:xlink="http://www.w3.org/1999/xlink" xml:space="preserve" xmlns:serif="http://www.serif.com/" style="fill-rule:evenodd;clip-rule:evenodd;stroke-linejoin:round;stroke-miterlimit:1.41421;"><rect id="Plan-de-travail1" serif:id="Plan de travail1" x="-1.739" y="-1.739" width="57.828" height="57.828" style="fill:none;"/><path d="M40.917,28.297c-0.977,-0.977 -2.559,-0.977 -3.535,0c-0.976,0.977 -0.977,2.559 0,3.535l6.043,6.043c0.488,0.488 1.128,0.732 1.768,0.732c0.64,0 1.279,-0.244 1.768,-0.732c0.977,-0.977 0.977,-2.559 0,-3.535l-6.044,-6.043Zm-21.799,-21.798c-0.977,-0.977 -2.559,-0.977 -3.535,0c-0.976,0.977 -0.977,2.559 0,3.535l6.043,6.043c0.488,0.488 1.128,0.732 1.768,0.732c0.64,0 1.279,-0.244 1.768,-0.732c0.977,-0.977 0.977,-2.559 0,-3.535l-6.044,-6.043Zm20.031,10.31c0.64,0 1.279,-0.244 1.768,-0.732l6.043,-6.043c0.977,-0.977 0.977,-2.559 0,-3.535c-0.977,-0.976 -2.559,-0.977 -3.535,0l-6.043,6.043c-0.977,0.977 -0.977,2.559 0,3.535c0.488,0.488 1.127,0.732 1.767,0.732Zm-17.524,11.488l-20.892,20.893c-0.977,0.977 -0.977,2.559 0,3.535c0.488,0.488 1.128,0.732 1.768,0.732c0.64,0 1.279,-0.244 1.768,-0.732l20.893,-20.893c0.977,-0.977 0.977,-2.559 0,-3.535c-0.977,-0.976 -2.56,-0.976 -3.537,0Zm29.333,-8.61l-8.374,0c-1.381,0 -2.5,1.119 -2.5,2.5c0,1.381 1.119,2.5 2.5,2.5l8.374,0c1.381,0 2.5,-1.119 2.5,-2.5c0,-1.381 -1.12,-2.5 -2.5,-2.5Zm-39.375,5l8.375,0c1.381,0 2.5,-1.119 2.5,-2.5c0,-1.381 -1.119,-2.5 -2.5,-2.5l-8.375,0c-1.381,0 -2.5,1.119 -2.5,2.5c0,1.381 1.12,2.5 2.5,2.5Zm19.688,-24.687c-1.381,0 -2.5,1.119 -2.5,2.5l0,8.374c0,1.381 1.119,2.5 2.5,2.5c1.381,0 2.5,-1.119 2.5,-2.5l0,-8.374c0,-1.38 -1.119,-2.5 -2.5,-2.5Zm0,30c-1.381,0 -2.5,1.119 -2.5,2.5l0,9.375c0,1.381 1.119,2.5 2.5,2.5c1.381,0 2.5,-1.119 2.5,-2.5l0,-9.375c0,-1.381 -1.119,-2.5 -2.5,-2.5Z" style="fill:#5289d2;fill-rule:nonzero;"/></svg>